<mxfile host="app.diagrams.net" modified="2023-12-28T05:34:29.151Z" agent="Mozilla/5.0 (Windows NT 10.0; Win64; x64) AppleWebKit/537.36 (KHTML, like Gecko) Chrome/120.0.0.0 Safari/537.36 Edg/120.0.0.0" etag="xnW2iap5Uj9GN0soH6PL" version="22.1.15" type="github">
  <diagram name="Page-1" id="vWr2i8RuJpJ68N9sftUU">
    <mxGraphModel dx="1426" dy="759" grid="1" gridSize="10" guides="1" tooltips="1" connect="1" arrows="1" fold="1" page="1" pageScale="1" pageWidth="850" pageHeight="1100" math="0" shadow="0">
      <root>
        <mxCell id="0" />
        <mxCell id="1" parent="0" />
        <mxCell id="D3fDvVzBnX3Dp_Wz5r1W-5" style="edgeStyle=orthogonalEdgeStyle;rounded=0;orthogonalLoop=1;jettySize=auto;html=1;exitX=1;exitY=0.5;exitDx=0;exitDy=0;entryX=0;entryY=0.5;entryDx=0;entryDy=0;" edge="1" parent="1" source="D3fDvVzBnX3Dp_Wz5r1W-1" target="D3fDvVzBnX3Dp_Wz5r1W-2">
          <mxGeometry relative="1" as="geometry" />
        </mxCell>
        <mxCell id="D3fDvVzBnX3Dp_Wz5r1W-1" value="" style="rounded=1;whiteSpace=wrap;html=1;" vertex="1" parent="1">
          <mxGeometry x="110" y="200" width="120" height="60" as="geometry" />
        </mxCell>
        <mxCell id="D3fDvVzBnX3Dp_Wz5r1W-6" style="edgeStyle=orthogonalEdgeStyle;rounded=0;orthogonalLoop=1;jettySize=auto;html=1;exitX=0.5;exitY=1;exitDx=0;exitDy=0;entryX=0.5;entryY=0;entryDx=0;entryDy=0;" edge="1" parent="1" source="D3fDvVzBnX3Dp_Wz5r1W-2" target="D3fDvVzBnX3Dp_Wz5r1W-3">
          <mxGeometry relative="1" as="geometry" />
        </mxCell>
        <mxCell id="D3fDvVzBnX3Dp_Wz5r1W-2" value="" style="rounded=1;whiteSpace=wrap;html=1;" vertex="1" parent="1">
          <mxGeometry x="270" y="200" width="120" height="60" as="geometry" />
        </mxCell>
        <mxCell id="D3fDvVzBnX3Dp_Wz5r1W-7" style="edgeStyle=orthogonalEdgeStyle;rounded=0;orthogonalLoop=1;jettySize=auto;html=1;exitX=1;exitY=0.5;exitDx=0;exitDy=0;entryX=0;entryY=0.5;entryDx=0;entryDy=0;" edge="1" parent="1" source="D3fDvVzBnX3Dp_Wz5r1W-3" target="D3fDvVzBnX3Dp_Wz5r1W-4">
          <mxGeometry relative="1" as="geometry" />
        </mxCell>
        <mxCell id="D3fDvVzBnX3Dp_Wz5r1W-3" value="" style="rounded=1;whiteSpace=wrap;html=1;" vertex="1" parent="1">
          <mxGeometry x="270" y="300" width="120" height="60" as="geometry" />
        </mxCell>
        <mxCell id="D3fDvVzBnX3Dp_Wz5r1W-4" value="" style="rounded=1;whiteSpace=wrap;html=1;" vertex="1" parent="1">
          <mxGeometry x="450" y="300" width="120" height="60" as="geometry" />
        </mxCell>
        <mxCell id="D3fDvVzBnX3Dp_Wz5r1W-8" style="edgeStyle=orthogonalEdgeStyle;rounded=0;orthogonalLoop=1;jettySize=auto;html=1;exitX=0.5;exitY=1;exitDx=0;exitDy=0;entryX=0.6;entryY=1.033;entryDx=0;entryDy=0;entryPerimeter=0;" edge="1" parent="1" source="D3fDvVzBnX3Dp_Wz5r1W-1" target="D3fDvVzBnX3Dp_Wz5r1W-4">
          <mxGeometry relative="1" as="geometry">
            <Array as="points">
              <mxPoint x="170" y="430" />
              <mxPoint x="522" y="430" />
            </Array>
          </mxGeometry>
        </mxCell>
      </root>
    </mxGraphModel>
  </diagram>
</mxfile>
